<svg viewBox="0 0 32 32" xmlns="http://www.w3.org/2000/svg">
<path d="M25.2616 15.6378L25.2615 16.3017C25.2615 16.6682 24.9643 16.9654 24.5977 16.9654L16.9645 16.9654L16.9644 24.5986C16.9645 24.9652 16.6673 25.2624 16.3007 25.2624L15.6369 25.2624C15.2704 25.2624 14.9732 24.9652 14.9732 24.5986L14.9732 16.9654L7.33989 16.9653C6.97334 16.9654 6.67616 16.6682 6.67616 16.3016L6.67616 15.6379C6.67616 15.2713 6.97335 14.9741 7.3399 14.9741L14.9732 14.9741L14.9732 7.34085C14.9732 6.97423 15.2704 6.67706 15.6369 6.67709L16.3007 6.67702C16.6673 6.67706 16.9645 6.97425 16.9645 7.34076L16.9645 14.9741L24.5977 14.974C24.9643 14.9741 25.2615 15.2713 25.2616 15.6378Z"/>
</svg>
