<svg viewBox="0 0 24 24" xmlns="http://www.w3.org/2000/svg">
<path d="M11.833 4C13.4985 3.9999 15.1272 4.48907 16.5171 5.40675C17.9069 6.32443 18.9965 7.63017 19.6506 9.16181C20.3046 10.6935 20.4943 12.3835 20.1961 14.022C19.8979 15.6606 19.1249 17.1754 17.9731 18.3784C16.8213 19.5813 15.3415 20.4194 13.7175 20.7886C12.0935 21.1577 10.3968 21.0416 8.83818 20.4547C7.27956 19.8679 5.92769 18.836 4.95049 17.4874C3.97328 16.1388 3.41379 14.5328 3.34151 12.8689L3.33301 12.5L3.34151 12.1311C3.43657 9.94278 4.37274 7.87562 5.95479 6.36072C7.53683 4.84582 9.64262 4.00013 11.833 4Z"/>
</svg>
