<svg width="13" height="13" viewBox="0 0 13 13" fill="none" xmlns="http://www.w3.org/2000/svg">
<g clip-path="url(#clip0_5390_7564)">
<path d="M7.69582 4.50256L7.69578 4.50246L6.41873 1.46912C6.41873 1.46911 6.41873 1.46911 6.41873 1.46911C6.40544 1.43754 6.3882 1.4208 6.37114 1.41014C6.35167 1.39799 6.32509 1.38965 6.2947 1.38965C6.26431 1.38965 6.23772 1.39799 6.21826 1.41014C6.20119 1.4208 6.18396 1.43754 6.17067 1.46912L4.89359 4.50246C4.72891 4.89361 4.35864 5.15702 3.93801 5.19034L0.623179 5.45288C0.495904 5.46296 0.466277 5.60494 0.545232 5.67176C0.545233 5.67176 0.545234 5.67177 0.545235 5.67177L3.07079 7.80898L3.07083 7.80902C3.3943 8.08281 3.53774 8.51493 3.43788 8.92846C3.43788 8.92847 3.43788 8.92847 3.43788 8.92848L2.66629 12.1241C2.65837 12.1569 2.66251 12.1788 2.66911 12.1952C2.67679 12.2142 2.69203 12.235 2.71564 12.252C2.73924 12.2689 2.76549 12.2779 2.78945 12.2794C2.81075 12.2808 2.83665 12.2769 2.86824 12.2579L7.69582 4.50256ZM7.69582 4.50256C7.86055 4.89361 8.23077 5.15702 8.6514 5.19034L11.9662 5.45288C12.0935 5.46296 12.1231 5.60494 12.0441 5.67177L9.51863 7.80899L9.51858 7.80902C9.19517 8.08278 9.05162 8.51488 9.1515 8.92848L9.92309 12.1241C9.93101 12.1569 9.92686 12.1788 9.92027 12.1952C9.91259 12.2142 9.89735 12.235 9.87374 12.252C9.85014 12.2689 9.8239 12.2779 9.79994 12.2794C9.77865 12.2808 9.75275 12.2769 9.72115 12.2579C9.72114 12.2579 9.72113 12.2579 9.72112 12.2579L6.88321 10.5454L7.69582 4.50256ZM5.70619 10.5454L2.86827 12.2579L6.8832 10.5454C6.52162 10.3272 6.06779 10.3272 5.7062 10.5454C5.7062 10.5454 5.70619 10.5454 5.70619 10.5454Z" stroke="#191919"/>
</g>
<defs>
<clipPath id="clip0_5390_7564">
<rect width="12.5894" height="11.89" fill="white" transform="translate(0 0.889648)"/>
</clipPath>
</defs>
</svg>
