<svg width="25" height="24" viewBox="0 0 25 24" fill="none" xmlns="http://www.w3.org/2000/svg">
<g id="tabler:point-filled">
<path id="Vector" d="M12.5 4C14.1655 3.9999 15.7942 4.48907 17.1841 5.40675C18.5739 6.32443 19.6635 7.63017 20.3176 9.16181C20.9716 10.6935 21.1613 12.3835 20.8631 14.022C20.5649 15.6606 19.7919 17.1754 18.6401 18.3784C17.4883 19.5813 16.0085 20.4194 14.3845 20.7886C12.7605 21.1577 11.0638 21.0416 9.50517 20.4547C7.94655 19.8679 6.59469 18.836 5.61748 17.4874C4.64027 16.1388 4.08078 14.5328 4.0085 12.8689L4 12.5L4.0085 12.1311C4.10356 9.94278 5.03973 7.87562 6.62178 6.36072C8.20383 4.84582 10.3096 4.00013 12.5 4Z" fill="#191919"/>
</g>
</svg>
