<svg viewBox="0 0 24 24" xmlns="http://www.w3.org/2000/svg">
<path d="M8.23584 6C8.75447 6 9.23373 6.03938 9.67361 6.1575C10.1124 6.23625 10.4735 6.40051 10.7941 6.59738C11.1148 6.79426 11.3533 7.07664 11.5153 7.43777C11.6728 7.79778 11.7583 8.23766 11.7583 8.71692C11.7583 9.27493 11.639 9.75419 11.3578 10.1142C11.1159 10.4742 10.721 10.796 10.2361 11.0333C10.9179 11.2313 11.4365 11.5913 11.7526 12.0706C12.0688 12.5499 12.2713 13.1472 12.2713 13.829C12.2713 14.387 12.1532 14.8663 11.9507 15.2668C11.7494 15.6704 11.4461 16.0144 11.0709 16.2647C10.7109 16.5066 10.271 16.7034 9.79174 16.8227C9.32233 16.947 8.8395 17.0135 8.35396 17.0207L3 17.0286V6H8.23584ZM7.91521 10.4753C8.35397 10.4753 8.71397 10.3572 8.99185 10.1547C9.26861 9.95219 9.39123 9.59556 9.39123 9.1568C9.39123 8.9138 9.35186 8.67754 9.27311 8.51892C9.18715 8.35865 9.06362 8.22161 8.9131 8.11954C8.75013 8.03004 8.57561 7.96341 8.39447 7.92153C8.19646 7.88216 7.99396 7.88216 7.75658 7.88216H5.44129V10.481C5.44129 10.4753 7.91521 10.4753 7.91521 10.4753ZM8.03333 15.1925C8.27521 15.1925 8.51259 15.1532 8.7151 15.1138C8.9131 15.0744 9.1156 14.9945 9.27311 14.8708C9.43061 14.747 9.55436 14.6289 9.67361 14.432C9.75236 14.234 9.83112 13.9921 9.83112 13.7109C9.83112 13.1529 9.67361 12.7524 9.35186 12.4711C9.03123 12.2292 8.59134 12.1111 8.07271 12.1111H5.44129V15.1869H8.03446L8.03333 15.1925ZM15.7487 15.1532C16.0697 15.4734 16.549 15.6332 17.1865 15.6324C17.6252 15.6324 18.0258 15.5132 18.3475 15.3107C18.667 15.0707 18.8658 14.8306 18.9438 14.5906H20.9013C20.5795 15.548 20.1003 16.2298 19.4635 16.6697C18.8268 17.0691 18.0651 17.3064 17.146 17.3064C16.5582 17.31 15.9751 17.2012 15.4281 16.9858C14.935 16.8039 14.4952 16.5014 14.1489 16.106C13.7786 15.7383 13.5036 15.2857 13.3479 14.7875C13.151 14.2689 13.0667 13.7109 13.0667 13.0685C13.0667 12.4711 13.1454 11.9075 13.3479 11.3888C13.5504 10.8713 13.8272 10.4303 14.1883 10.0309C14.5483 9.67094 14.9882 9.34918 15.4675 9.15118C16.0017 8.93793 16.5719 8.82909 17.1471 8.83055C17.8289 8.83055 18.4263 8.94867 18.9449 9.22993C19.4624 9.51118 19.864 9.82844 20.1847 10.3077C20.5053 10.7465 20.7427 11.2651 20.9058 11.8242C20.9846 12.3822 21.0239 12.9447 20.9846 13.5826H15.1907C15.1907 14.2351 15.427 14.8314 15.7487 15.1532ZM18.2688 10.9546C17.9875 10.6733 17.5465 10.5147 17.0279 10.5147C16.6679 10.5147 16.3911 10.5935 16.1492 10.7127C15.9073 10.832 15.7487 10.994 15.5912 11.1515C15.4443 11.306 15.3465 11.5005 15.31 11.7106C15.2695 11.9075 15.2312 12.0706 15.2312 12.2281H18.8268C18.748 11.6363 18.5466 11.2358 18.2688 10.9546ZM14.7508 6.76051H19.2261V7.83716H14.7508V6.76051Z"/>
</svg>
