<svg viewBox="0 0 24 24" xmlns="http://www.w3.org/2000/svg">
<path d="M9.336 20.586C10.2 20.847 11.073 21 12 21C14.3869 21 16.6761 20.0518 18.364 18.364C20.0518 16.6761 21 14.3869 21 12C21 10.8181 20.7672 9.64778 20.3149 8.55585C19.8626 7.46392 19.1997 6.47177 18.364 5.63604C17.5282 4.80031 16.5361 4.13738 15.4442 3.68508C14.3522 3.23279 13.1819 3 12 3C10.8181 3 9.64778 3.23279 8.55585 3.68508C7.46392 4.13738 6.47177 4.80031 5.63604 5.63604C3.94821 7.32387 3 9.61305 3 12C3 15.825 5.403 19.11 8.796 20.406C8.715 19.704 8.634 18.543 8.796 17.742L9.831 13.296C9.831 13.296 9.57 12.774 9.57 11.946C9.57 10.704 10.344 9.777 11.226 9.777C12 9.777 12.36 10.344 12.36 11.073C12.36 11.847 11.847 12.954 11.586 14.016C11.433 14.898 12.054 15.672 12.954 15.672C14.556 15.672 15.798 13.962 15.798 11.55C15.798 9.39 14.25 7.914 12.027 7.914C9.489 7.914 7.995 9.804 7.995 11.793C7.995 12.567 8.247 13.35 8.661 13.863C8.742 13.917 8.742 13.989 8.715 14.124L8.454 15.105C8.454 15.258 8.355 15.312 8.202 15.204C7.05 14.7 6.384 13.062 6.384 11.739C6.384 8.895 8.4 6.312 12.288 6.312C15.384 6.312 17.796 8.535 17.796 11.487C17.796 14.583 15.879 17.067 13.134 17.067C12.261 17.067 11.406 16.599 11.1 16.05L10.497 18.183C10.29 18.957 9.723 19.992 9.336 20.613V20.586Z"/>
</svg>
